<svg width="72" height="72" viewBox="0 0 72 72" fill="none" xmlns="http://www.w3.org/2000/svg">
<g filter="url(#filter0_d_49789_3152)">
<rect x="4" width="64" height="64" rx="32" fill="white" shape-rendering="crispEdges"/>
<g clip-path="url(#clip0_49789_3152)">
<path d="M59 32C59 19.2974 48.7025 9 36 9C23.2975 9 13 19.2974 13 32C13 43.48 21.4108 52.9951 32.4062 54.7205V38.6484H26.5664V32H32.4062V26.9328C32.4062 21.1684 35.84 17.9844 41.0937 17.9844C43.6101 17.9844 46.2422 18.4336 46.2422 18.4336V24.0937H43.3419C40.4848 24.0937 39.5938 25.8667 39.5938 27.6856V32H45.9727L44.9529 38.6484H39.5938V54.7205C50.5892 52.9951 59 43.48 59 32Z" fill="#1877F2"/>
<path d="M44.9529 38.6484L45.9727 32H39.5938V27.6856C39.5938 25.8667 40.4848 24.0938 43.3419 24.0938H46.2422V18.4336C46.2422 18.4336 43.6101 17.9844 41.0937 17.9844C35.84 17.9844 32.4062 21.1684 32.4062 26.9328V32H26.5664V38.6484H32.4062V54.7205C34.7876 55.0932 37.2124 55.0932 39.5938 54.7205V38.6484H44.9529Z" fill="white"/>
</g>
</g>
<defs>
<filter id="filter0_d_49789_3152" x="0" y="0" width="72" height="72" filterUnits="userSpaceOnUse" color-interpolation-filters="sRGB">
<feFlood flood-opacity="0" result="BackgroundImageFix"/>
<feColorMatrix in="SourceAlpha" type="matrix" values="0 0 0 0 0 0 0 0 0 0 0 0 0 0 0 0 0 0 127 0" result="hardAlpha"/>
<feOffset dy="4"/>
<feGaussianBlur stdDeviation="2"/>
<feComposite in2="hardAlpha" operator="out"/>
<feColorMatrix type="matrix" values="0 0 0 0 0 0 0 0 0 0 0 0 0 0 0 0 0 0 0.2 0"/>
<feBlend mode="normal" in2="BackgroundImageFix" result="effect1_dropShadow_49789_3152"/>
<feBlend mode="normal" in="SourceGraphic" in2="effect1_dropShadow_49789_3152" result="shape"/>
</filter>
<clipPath id="clip0_49789_3152">
<rect width="46" height="46" fill="white" transform="translate(13 9)"/>
</clipPath>
</defs>
</svg>
