<svg width="20" height="20" viewBox="0 0 20 20" fill="none" xmlns="http://www.w3.org/2000/svg">
<path d="M19.5999 10.2219C19.5999 9.3997 19.5332 8.7997 19.3888 8.17749H10V11.8885H15.511C15.4 12.8108 14.8 14.1997 13.4666 15.1329L13.4479 15.2572L16.4165 17.5569L16.6222 17.5774C18.511 15.833 19.5999 13.2663 19.5999 10.2219Z" fill="#4285F4"/>
<path d="M10.0002 19.9999C12.7001 19.9999 14.9668 19.111 16.6224 17.5777L13.4668 15.1333C12.6224 15.7221 11.489 16.1333 10.0002 16.1333C7.35578 16.1333 5.11137 14.3889 4.3113 11.9778L4.19403 11.9877L1.10726 14.3766L1.06689 14.4888C2.71131 17.7555 6.08908 19.9999 10.0002 19.9999Z" fill="#34A853"/>
<path d="M4.31104 11.9777C4.09994 11.3555 3.97776 10.6888 3.97776 9.99995C3.97776 9.31102 4.09994 8.64438 4.29993 8.02217L4.29434 7.88966L1.16889 5.4624L1.06663 5.51104C0.388891 6.86661 0 8.38885 0 9.99995C0 11.611 0.388891 13.1332 1.06663 14.4888L4.31104 11.9777Z" fill="#FBBC05"/>
<path d="M10.0002 3.86662C11.8779 3.86662 13.1446 4.67772 13.8668 5.35554L16.689 2.59998C14.9557 0.988887 12.7001 0 10.0002 0C6.08908 0 2.71131 2.24441 1.06689 5.51103L4.30019 8.02216C5.11137 5.61107 7.35579 3.86662 10.0002 3.86662Z" fill="#EB4335"/>
</svg>
