<svg width="71" height="71" viewBox="0 0 71 71" fill="none" xmlns="http://www.w3.org/2000/svg">
<g filter="url(#filter0_d_49789_3156)">
<rect x="3.43652" width="64" height="64" rx="32" fill="white" shape-rendering="crispEdges"/>
<path d="M37.8747 29.0266H37.9097V28.9705L37.8747 29.0266ZM37.8747 29.0266H37.9097V28.9705L37.8747 29.0266ZM37.8747 29.0266H37.9097V28.9705L37.8747 29.0266ZM37.8747 29.0266H37.9097V28.9705L37.8747 29.0266ZM37.8747 29.0266H37.9097V28.9705L37.8747 29.0266ZM37.8747 29.0266H37.9097V28.9705L37.8747 29.0266ZM37.8747 29.0266H37.9097V28.9705L37.8747 29.0266ZM37.8747 29.0266H37.9097V28.9705L37.8747 29.0266ZM37.8747 29.0266H37.9097V28.9705L37.8747 29.0266ZM37.8747 29.0266H37.9097V28.9705L37.8747 29.0266ZM37.8747 29.0266H37.9097V28.9705L37.8747 29.0266ZM37.8747 29.0266H37.9097V28.9705L37.8747 29.0266ZM37.8747 29.0266H37.9097V28.9705L37.8747 29.0266ZM37.8747 29.0266H37.9097V28.9705L37.8747 29.0266ZM37.8747 29.0266H37.9097V28.9705L37.8747 29.0266ZM37.8747 29.0266H37.9097V28.9705L37.8747 29.0266ZM35.5997 8.42261C31.0833 8.42261 26.6684 9.78864 22.9132 12.348C19.158 14.9073 16.2312 18.545 14.5029 22.801C12.7745 27.057 12.3223 31.7401 13.2034 36.2583C14.0845 40.7764 16.2593 44.9266 19.4529 48.184C22.6464 51.4414 26.7152 53.6597 31.1448 54.5585C35.5743 55.4572 40.1657 54.9959 44.3382 53.233C48.5108 51.4701 52.0771 48.4848 54.5863 44.6545C57.0954 40.8242 58.4347 36.321 58.4347 31.7143C58.428 25.539 56.0201 19.6186 51.7391 15.252C47.4582 10.8855 41.6538 8.42936 35.5997 8.42261ZM29.8897 42.1999C29.8883 42.3032 29.8472 42.4018 29.7751 42.4743C29.7031 42.5468 29.6059 42.5875 29.5047 42.5875H25.1047C25.0039 42.5875 24.9072 42.5467 24.836 42.474C24.7647 42.4013 24.7247 42.3027 24.7247 42.1999V27.1192C24.724 27.0679 24.7333 27.0169 24.7521 26.9693C24.7709 26.9217 24.7988 26.8784 24.8342 26.8418C24.8695 26.8053 24.9116 26.7763 24.9581 26.7565C25.0045 26.7367 25.0543 26.7265 25.1047 26.7265H29.5047C29.5552 26.7265 29.6053 26.7367 29.652 26.7564C29.6987 26.7761 29.7411 26.8051 29.7769 26.8415C29.8126 26.878 29.841 26.9213 29.8604 26.9689C29.8797 27.0166 29.8897 27.0676 29.8897 27.1192V42.1999ZM27.1497 24.712C26.6028 24.712 26.0682 24.5466 25.6135 24.2367C25.1588 23.9268 24.8044 23.4863 24.5951 22.971C24.3859 22.4556 24.3311 21.8886 24.4378 21.3415C24.5445 20.7944 24.8078 20.2919 25.1945 19.8975C25.5812 19.503 26.0739 19.2344 26.6102 19.1256C27.1466 19.0168 27.7025 19.0726 28.2078 19.2861C28.713 19.4996 29.1448 19.861 29.4487 20.3248C29.7525 20.7886 29.9147 21.3339 29.9147 21.8917C29.9153 22.2623 29.8442 22.6293 29.7055 22.9718C29.5668 23.3143 29.3632 23.6254 29.1063 23.8875C28.8494 24.1495 28.5443 24.3572 28.2086 24.4987C27.8728 24.6402 27.5129 24.7127 27.1497 24.712ZM48.5097 42.1999C48.5083 42.3032 48.4672 42.4018 48.3951 42.4743C48.3231 42.5468 48.2259 42.5875 48.1247 42.5875H43.7247C43.6748 42.5875 43.6253 42.5775 43.5792 42.558C43.5331 42.5385 43.4912 42.51 43.456 42.474C43.4207 42.438 43.3927 42.3953 43.3736 42.3482C43.3545 42.3012 43.3447 42.2508 43.3447 42.1999V34.096C43.3447 31.9642 42.5997 30.526 40.7297 30.526C40.147 30.5293 39.5795 30.7164 39.1051 31.0615C38.6307 31.4066 38.2725 31.8929 38.0797 32.4538C37.9478 32.8683 37.8903 33.3037 37.9097 33.739V42.1999C37.9097 42.3041 37.8691 42.4039 37.7969 42.4776C37.7247 42.5512 37.6268 42.5926 37.5247 42.5926H33.1247C33.0743 42.5926 33.0245 42.5824 32.9781 42.5626C32.9316 42.5428 32.8895 42.5138 32.8542 42.4773C32.8188 42.4408 32.7909 42.3974 32.7721 42.3498C32.7533 42.3022 32.744 42.2512 32.7447 42.1999C32.7447 40.0477 32.7997 29.5978 32.7447 27.1396C32.744 27.0883 32.7533 27.0373 32.7721 26.9897C32.7909 26.9421 32.8188 26.8988 32.8542 26.8622C32.8895 26.8257 32.9316 26.7967 32.9781 26.7769C33.0245 26.7571 33.0743 26.7469 33.1247 26.7469H37.5147C37.5654 26.7462 37.6158 26.7559 37.6628 26.7754C37.7098 26.7949 37.7525 26.8238 37.7884 26.8604C37.8243 26.897 37.8526 26.9406 37.8717 26.9885C37.8908 27.0365 37.9003 27.0878 37.8997 27.1396V28.9909C38.3674 28.1628 39.0485 27.4811 39.8691 27.0199C40.6897 26.5587 41.6185 26.3355 42.5547 26.3746C45.9497 26.3746 48.4997 28.639 48.4997 33.5146L48.5097 42.1999ZM37.9097 29.0419V28.9858L37.8747 29.0419H37.9097ZM37.8747 29.0419H37.9097V28.9858L37.8747 29.0419ZM37.8747 29.0419H37.9097V28.9858L37.8747 29.0419ZM37.8747 29.0419H37.9097V28.9858L37.8747 29.0419ZM37.8747 29.0419H37.9097V28.9858L37.8747 29.0419ZM37.8747 29.0419H37.9097V28.9858L37.8747 29.0419ZM37.8747 29.0419H37.9097V28.9858L37.8747 29.0419ZM37.8747 29.0419H37.9097V28.9858L37.8747 29.0419ZM37.8747 29.0419H37.9097V28.9858L37.8747 29.0419ZM37.8747 29.0419H37.9097V28.9858L37.8747 29.0419ZM37.8747 29.0419H37.9097V28.9858L37.8747 29.0419ZM37.8747 29.0419H37.9097V28.9858L37.8747 29.0419ZM37.8747 29.0419H37.9097V28.9858L37.8747 29.0419ZM37.8747 29.0419H37.9097V28.9858L37.8747 29.0419ZM37.8747 29.0419H37.9097V28.9858L37.8747 29.0419Z" fill="#0B49D1"/>
</g>
<defs>
<filter id="filter0_d_49789_3156" x="-4.64916e-05" y="0" width="70.8731" height="70.8731" filterUnits="userSpaceOnUse" color-interpolation-filters="sRGB">
<feFlood flood-opacity="0" result="BackgroundImageFix"/>
<feColorMatrix in="SourceAlpha" type="matrix" values="0 0 0 0 0 0 0 0 0 0 0 0 0 0 0 0 0 0 127 0" result="hardAlpha"/>
<feOffset dy="3.43657"/>
<feGaussianBlur stdDeviation="1.71828"/>
<feComposite in2="hardAlpha" operator="out"/>
<feColorMatrix type="matrix" values="0 0 0 0 0 0 0 0 0 0 0 0 0 0 0 0 0 0 0.2 0"/>
<feBlend mode="normal" in2="BackgroundImageFix" result="effect1_dropShadow_49789_3156"/>
<feBlend mode="normal" in="SourceGraphic" in2="effect1_dropShadow_49789_3156" result="shape"/>
</filter>
</defs>
</svg>
