<svg width="277" height="48" viewBox="0 0 277 48" fill="none" xmlns="http://www.w3.org/2000/svg">
<path d="M73.3874 11.8342C66.2811 11.8342 61.3289 16.605 61.3289 23.9396V42.2791H66.7845V31.7776C68.3884 34.3005 71.0928 35.6762 74.3532 35.6762C79.8498 35.6762 85.6274 31.7308 85.6274 23.9864C85.6274 16.7864 80.5874 11.8342 73.3874 11.8342ZM73.4284 30.5893C69.442 30.5893 66.7845 27.7445 66.7845 23.7581C66.7845 19.7718 69.442 16.9269 73.4284 16.9269C77.4147 16.9269 80.125 19.7659 80.125 23.7581C80.125 27.7503 77.4147 30.5893 73.4284 30.5893Z" fill="#6F6AF8"/>
<path d="M100.759 11.8342C93.6059 11.8342 88.5601 16.8801 88.5601 23.7581C88.5601 30.6362 93.6001 35.682 100.759 35.682C107.918 35.682 112.958 30.6362 112.958 23.7581C112.958 16.8801 107.912 11.8342 100.759 11.8342ZM100.759 30.5893C96.7727 30.5893 94.0684 27.7445 94.0684 23.7581C94.0684 19.7718 96.7727 16.9269 100.759 16.9269C104.745 16.9269 107.403 19.7659 107.403 23.7581C107.403 27.7503 104.745 30.5893 100.759 30.5893Z" fill="#6F6AF8"/>
<path d="M126.205 21.4225C123.776 21.1006 121.709 20.8254 121.709 19.081C121.709 17.7523 122.903 16.605 125.286 16.605C127.44 16.605 128.722 17.5649 128.857 18.9406H134.271C134.137 14.9542 130.741 11.8342 125.192 11.8342C119.643 11.8342 116.207 14.8664 116.207 19.4967C116.207 25.0401 121.34 25.6371 124.829 26.0996C127.259 26.4215 129.278 26.6498 129.278 28.3884C129.278 29.764 128.084 30.9113 125.292 30.9113C122.5 30.9113 121.305 29.8986 121.259 28.3884H115.756C115.891 32.6089 119.52 35.682 125.298 35.682C131.075 35.682 134.792 32.6557 134.792 28.0664C134.792 22.4235 129.243 21.8323 126.217 21.4225H126.205Z" fill="#6F6AF8"/>
<path d="M150.896 25.7777V26.3748C150.896 29.4479 149.339 30.5952 147.091 30.5952C144.843 30.5952 143.28 29.4011 143.28 26.3748V17.3894H156.351V12.4372H143.28V6.11523H137.824V26.3748C137.824 32.6557 141.588 35.6821 147.091 35.6821C152.593 35.6821 156.351 32.6557 156.351 26.3748V25.7777H150.896Z" fill="#6F6AF8"/>
<path d="M171.079 11.8342C163.879 11.8342 158.833 16.7923 158.833 23.9864C158.833 31.7308 164.611 35.6762 170.113 35.6762C173.69 35.6762 176.763 33.9786 178.138 30.6303V35.0791H183.137V23.9337C183.137 16.6401 178.185 11.8284 171.079 11.8284V11.8342ZM171.032 30.5893C167.046 30.5893 164.341 27.7445 164.341 23.7581C164.341 19.7718 167.046 16.9269 171.032 16.9269C175.018 16.9269 177.682 19.7659 177.682 23.7581C177.682 27.7503 175.024 30.5893 171.032 30.5893Z" fill="#6F6AF8"/>
<path d="M186.714 6.11523V35.085H192.169V6.11523H186.714Z" fill="#6F6AF8"/>
<path d="M207.834 11.8342C200.681 11.8342 195.635 16.8801 195.635 23.7581C195.635 30.6362 200.681 35.682 207.834 35.682C214.987 35.682 220.033 30.6362 220.033 23.7581C220.033 16.8801 214.987 11.8342 207.834 11.8342ZM207.834 30.5893C203.848 30.5893 201.143 27.7445 201.143 23.7581C201.143 19.7718 203.848 16.9269 207.834 16.9269C211.82 16.9269 214.484 19.7659 214.484 23.7581C214.484 27.7503 211.82 30.5893 207.834 30.5893Z" fill="#6F6AF8"/>
<path d="M236.125 25.7777V26.3748C236.125 29.4479 234.562 30.5952 232.314 30.5952C230.066 30.5952 228.509 29.4011 228.509 26.3748V17.3894H241.58V12.4372H228.509V6.11523H223.053V26.3748C223.053 32.6557 226.817 35.6821 232.314 35.6821C237.811 35.6821 241.58 32.6557 241.58 26.3748V25.7777H236.125Z" fill="#6F6AF8"/>
<path d="M258.094 25.7777V26.3748C258.094 29.4479 256.537 30.5952 254.289 30.5952C252.041 30.5952 250.478 29.4011 250.478 26.3748V17.3894H263.549V12.4372H250.478V6.11523H245.022V26.3748C245.022 32.6557 248.786 35.6821 254.289 35.6821C259.791 35.6821 263.549 32.6557 263.549 26.3748V25.7777H258.094Z" fill="#6F6AF8"/>
<path d="M42.1695 36.9933C42.1695 36.9933 42.1519 37.005 42.1402 37.0108L35.192 41.0206C34.1968 41.5942 32.9734 41.5942 31.9783 41.0206L25.03 37.0108C25.03 37.0108 25.0124 37.005 25.0007 36.9933C23.3383 36.0098 23.3383 33.5396 25.0007 32.5562C25.0124 32.5503 25.0183 32.5445 25.03 32.5386L31.9783 28.5289C32.9734 27.9552 34.1968 27.9552 35.192 28.5289L42.1402 32.5386C42.1402 32.5386 42.1578 32.5445 42.1695 32.5562C43.832 33.5396 43.832 36.0098 42.1695 36.9933Z" fill="url(#paint0_linear_49789_3069)"/>
<path d="M31.1529 25.9767C31.1529 25.9767 31.1354 25.9884 31.1236 25.9942L24.1753 30.004C23.1802 30.5776 21.9568 30.5776 20.9617 30.004L14.0134 25.9942C14.0134 25.9942 13.9958 25.9884 13.9841 25.9767C12.3217 24.9932 12.3217 22.523 13.9841 21.5396C13.9958 21.5337 14.0017 21.5279 14.0134 21.522L20.9617 17.5123C21.9568 16.9386 23.1802 16.9386 24.1753 17.5123L31.1236 21.522C31.1236 21.522 31.1412 21.5279 31.1529 21.5396C32.8153 22.523 32.8153 24.9932 31.1529 25.9767Z" fill="url(#paint1_linear_49789_3069)"/>
<path d="M53.1861 25.9767C53.1861 25.9767 53.1686 25.9884 53.1568 25.9942L46.2086 30.004C45.2134 30.5776 43.99 30.5776 42.9949 30.004L36.0466 25.9942C36.0466 25.9942 36.029 25.9884 36.0173 25.9767C34.3549 24.9932 34.3549 22.523 36.0173 21.5396C36.029 21.5337 36.0349 21.5279 36.0466 21.522L42.9949 17.5123C43.99 16.9386 45.2134 16.9386 46.2086 17.5123L53.1568 21.522C53.1568 21.522 53.1744 21.5279 53.1861 21.5396C54.8485 22.523 54.8485 24.9932 53.1861 25.9767Z" fill="#6F6AF8"/>
<path d="M42.1695 14.9601C42.1695 14.9601 42.1519 14.9718 42.1402 14.9776L35.192 18.9874C34.1968 19.5611 32.9734 19.5611 31.9783 18.9874L25.03 14.9776C25.03 14.9776 25.0124 14.9718 25.0007 14.9601C23.3383 13.9767 23.3383 11.5064 25.0007 10.523C25.0124 10.5171 25.0183 10.5113 25.03 10.5054L31.9783 6.49567C32.9734 5.92202 34.1968 5.92202 35.192 6.49567L42.1402 10.5054C42.1402 10.5054 42.1578 10.5113 42.1695 10.523C43.832 11.5064 43.832 13.9767 42.1695 14.9601Z" fill="#6F6AF8"/>
<defs>
<linearGradient id="paint0_linear_49789_3069" x1="23.7598" y1="34.7747" x2="43.4163" y2="34.7747" gradientUnits="userSpaceOnUse">
<stop stop-color="#84F8B2"/>
<stop offset="1" stop-color="#8CDCE2"/>
</linearGradient>
<linearGradient id="paint1_linear_49789_3069" x1="12.7373" y1="23.7581" x2="32.3997" y2="23.7581" gradientUnits="userSpaceOnUse">
<stop stop-color="#84F8B2"/>
<stop offset="1" stop-color="#8CDCE2"/>
</linearGradient>
</defs>
</svg>
