<svg width="72" height="72" viewBox="0 0 72 72" fill="none" xmlns="http://www.w3.org/2000/svg">
<g filter="url(#filter0_d_49789_3194)">
<rect x="4" width="64" height="64" rx="32" fill="white" shape-rendering="crispEdges"/>
<rect x="12.3047" y="8" width="48" height="48" rx="24" fill="#1877F2"/>
<path d="M48.4385 24.4891C47.5264 24.8848 46.5619 25.1464 45.5749 25.2657C46.6162 24.6436 47.3965 23.665 47.7711 22.5113C46.7926 23.0938 45.7214 23.5042 44.6042 23.7247C43.8574 22.9149 42.863 22.3758 41.7768 22.192C40.6906 22.0083 39.5742 22.1902 38.6026 22.7093C37.631 23.2285 36.8591 24.0554 36.4081 25.0604C35.9571 26.0655 35.8525 27.1918 36.1105 28.2627C34.132 28.1627 32.1967 27.6475 30.4303 26.7507C28.6639 25.8539 27.1059 24.5955 25.8575 23.0573C25.4196 23.822 25.1896 24.6879 25.1901 25.569C25.1886 26.3873 25.3894 27.1933 25.7747 27.9152C26.16 28.6371 26.7178 29.2525 27.3985 29.7067C26.6073 29.6851 25.8331 29.4728 25.1416 29.0878V29.1485C25.1475 30.295 25.5493 31.4043 26.2789 32.2887C27.0085 33.1731 28.0213 33.7783 29.1458 34.002C28.7129 34.1338 28.2635 34.2032 27.811 34.2083C27.4979 34.2046 27.1854 34.1762 26.8767 34.1234C27.197 35.1096 27.8166 35.9715 28.6496 36.5891C29.4825 37.2068 30.4872 37.5494 31.524 37.5694C29.7733 38.9469 27.6119 39.6987 25.3843 39.7049C24.9787 39.7062 24.5734 39.6819 24.1709 39.6321C26.4453 41.1006 29.0958 41.8802 31.8031 41.8769C33.6713 41.8963 35.5246 41.5432 37.2549 40.8383C38.9852 40.1334 40.5576 39.0908 41.8804 37.7714C43.2032 36.452 44.2498 34.8822 44.9592 33.1538C45.6685 31.4253 46.0263 29.5729 46.0117 27.7046C46.0117 27.4983 46.0117 27.2799 46.0117 27.0615C46.9639 26.3514 47.785 25.481 48.4385 24.4891Z" fill="#FCFDFF"/>
</g>
<defs>
<filter id="filter0_d_49789_3194" x="0" y="0" width="72" height="72" filterUnits="userSpaceOnUse" color-interpolation-filters="sRGB">
<feFlood flood-opacity="0" result="BackgroundImageFix"/>
<feColorMatrix in="SourceAlpha" type="matrix" values="0 0 0 0 0 0 0 0 0 0 0 0 0 0 0 0 0 0 127 0" result="hardAlpha"/>
<feOffset dy="4"/>
<feGaussianBlur stdDeviation="2"/>
<feComposite in2="hardAlpha" operator="out"/>
<feColorMatrix type="matrix" values="0 0 0 0 0 0 0 0 0 0 0 0 0 0 0 0 0 0 0.2 0"/>
<feBlend mode="normal" in2="BackgroundImageFix" result="effect1_dropShadow_49789_3194"/>
<feBlend mode="normal" in="SourceGraphic" in2="effect1_dropShadow_49789_3194" result="shape"/>
</filter>
</defs>
</svg>
